<?xml version="1.0" encoding="UTF-8"?>
<svg xmlns="http://www.w3.org/2000/svg" version="1.1" viewBox="0 0 31.9 32">
  <defs>
    <style>
      .cls-1 {
        fill: #fff;
        fill-rule: evenodd;
      }

      .cls-2 {
        fill: #485e82;
      }
    </style>
  </defs>
  <!-- Generator: Adobe Illustrator 28.7.4, SVG Export Plug-In . SVG Version: 1.2.0 Build 166)  -->
  <g>
    <g id="Capa_1">
      <rect class="cls-2" x=".4" y=".5" width="31" height="31" rx="6" ry="6"/>
      <g>
        <path class="cls-1" d="M14,15.6s0,0,0,0c0,0,0,0,0,0M10.8,14.5v.2c-1.1-.2-2.2-.2-3.3,0-.2,0-.8.1-.9.1-.1,0,0,.2,0,0,.2-.6,2.1-5.8,2.2-5.9.1.1,1.3,3.7,1.6,4.4.1.3.3,1.1.5,1.4ZM26.3,18.4l-1.1.8c0-.3,0-.7-.2-1-.1-.4-.3-.7-.6-1-.3-.3-.7-.6-1.2-.8-.5-.2-1.1-.3-1.8-.3s-1.1.1-1.6.3c-.5.2-1,.5-1.4.8-.4.3-.7.7-.9,1.2-.2.4-.2.9,0,1.4.1.5.5.9,1.1,1.4.6.5,1.5.9,2.5,1.3,1.6.6,2.8,1.3,3.7,2,.9.8,1.4,1.5,1.5,2.3,0,.7,0,1.4-.4,2.1-.4.6-.9,1.2-1.8,1.6-.8.4-1.7.6-2.7.6-1,0-1.9-.3-2.8-.8-.9-.5-1.6-1.1-2.1-2l1.1-.8c0,.4,0,.8.2,1.2.1.4.3.7.6,1.1.3.4.7.6,1.2.8.5.2,1.1.3,1.8.3,1.2,0,2.2-.4,3-1.2.8-.8,1-1.7.6-2.8-.5-1.3-1.9-2.4-4.3-3.2-1.1-.4-2-.9-2.7-1.4,0,0-.1-.1-.2-.2-.9.3-2.1.8-2.2.9-.5.2-.9.4-1.4.7-2.8,1.6-5.6,4.3-8.9,4.1-2.7-.2-3.9-2.9-2-5.2,1.1-.8,2.2-1.5,3.7-1.8,1-.3,4.7-.8,5-1.1,0,0,.1-.2.1-.3,0-.3,0-.5-.1-.7-.2-.6-1.3-3.5-1.3-3.8-.8-.1-1.6-.2-2.4-.1-.3,0-1.6.1-2,.2-.1,0-.1.2-.1.1,0,0,0,0,0,0,0,.3-1.1,3.1-1.3,3.7-.3,1.1.2.9.3,1.1-.1,0-1.5,0-1.6,0,0-.1.1,0,.3-.1,0,0,.2,0,.3-.2.1-.1.3-.3.4-.5.2-.4.8-2,1-2.5.7-2,1.5-4.1,2.2-6,.3-.7,1.3-3.6,1.5-4.1h.3c.1.2,3,8.3,3.1,8.7l1.1.3c0,0,0,0,0,0,.3,0,2.1.8,2.4,1.1.4.4,0,1-.6.8-.6-.2-.3-1.1-.4-1.2-.1-.2-1-.5-1.3-.6-.3,0-.8-.3-1.1-.3h0c.3,1,.6,1.8.9,2.6.2.6.4,1.3.9,1.7.2.2.5.1.5.3,0,0,0,.5,0,.5-5.7-.6-10.8.9-12,2.9-.7,1.2-1,3.7,1.9,4.3,1.2.1,1.5.1,3.1-.4.8-.3,1.7-.8,2.5-1.2,1.6-1,3.6-2.5,5.3-3.2.6-.3,1.2-.5,1.9-.7-.5-.5-.8-.9-1-1.4-.2-.6-.2-1.1,0-1.7.2-.6.5-1.1.9-1.5.4-.4,1-.8,1.7-1.1.7-.3,1.4-.4,2.1-.4,1,0,1.9.2,2.7.7.8.4,1.5,1.1,2.1,1.8Z"/>
        <path class="cls-1" d="M14.7,1.5c-.3,0-1.3.4-1.6.6-.5.2-.9.5-1.4.8-.2.1-2.3,1.6-2.3,2,.1,0,.4-.3.5-.5C14.2.2,21,0,25.5,4.1c1.1,1,2.7,3.1,3,4.5.6,1.2.7,3.2.7,4.6,0,1.2-.4,2.9-1,4h0c0,.2,0,.2,0,.2,0,0,0,0,0,0,.1,0,0,0,.1-.1l.5-1.3c.5-1.5.6-3.1.4-4.7,0-.2-.2-1.2-.2-1.2-.2-1.1-.5-1.9-1-2.9-1.3-2.6-4-5-7-5.7-.5,0-1-.2-1.5-.3-.5,0-1.1-.1-1.6-.1-1.3,0-2.1.2-3.2.4"/>
      </g>
    </g>
  </g>
</svg>